<svg id="Layer_1" data-name="Layer 1" xmlns="http://www.w3.org/2000/svg" width="4000" height="3000" viewBox="0 0 4000 3000">
  <title>vector file</title>
  <g>
    <g>
      <g>
        <path d="M1923.44,1856.34a234.42,234.42,0,0,0-69.46,36.07q-10.71-26.72-22.71-51.43a340.24,340.24,0,0,0-28-47.42c-1.79-2.67-3.8-4-6-4s-3.8,1.34-4.67,4q-13.38,13.37-24.71,26.71T1744.45,1847q-4,4-8.69,9.36a14.57,14.57,0,0,1-11.35,5.34q-13.37,0-16-8c-1.79-5.35-2-11.57-.66-18.71a91,91,0,0,1,7.34-22q5.32-11.34,8-15.37t-3.33-8q-6-4-8.69,2.67-5.35,6.71-11.35,20.71a110.16,110.16,0,0,0-8,28.72,57.17,57.17,0,0,0,1.18,23.1c-11,9.2-22.69,18.19-35.25,27a202.56,202.56,0,0,1-42.07,22.7,132.9,132.9,0,0,1-45.42,9.35q-23.39.69-46.08-14a52.58,52.58,0,0,1-18.7-16q-8-10.68-15.36-20.71a134.25,134.25,0,0,0-16.7-18.69,45.65,45.65,0,0,0-21.37-11.36q-16-4-29.39,2.67a69.38,69.38,0,0,0-23.38,19.37,140.5,140.5,0,0,0-17.36,28.72q-7.35,16-12.69,30.72-1.33-16-2-31.39t-2-30q0-20,.67-40.75a106.2,106.2,0,0,0-6-39.4,6.08,6.08,0,0,0-4-3.34,3.26,3.26,0,0,0-4,2q-10.7,17.37-12.69,40.06a205.3,205.3,0,0,0,.36,38c-18.06,13.32-35.54,22.31-52.43,26.83q-27.39,7.36-58.1-18-6.7-6.67-15.37-15.36t-18-11.35q-20-6.68-34.06,7.34a87.25,87.25,0,0,0-20.71,32.73v-16a98.5,98.5,0,0,0-1.33-16v-19.37a66,66,0,0,0-2.67-18c0-2.68-1.34-4.88-4-6.68v-1.33q-4-2.67-6.68,0l-1.33,1.33q-18.73,14.72-41.41,14.69a4,4,0,0,0-2.67-1.33,14.69,14.69,0,0,1-6.68-1.34q-5.36-10.68-9.35-14.69c-1.8-2.67-5.35-5.79-10.69-9.35a16.54,16.54,0,0,0-5.34-7.35q-4-3.32-10.69-.67a77.57,77.57,0,0,0-29.38,29.39,108,108,0,0,0-13.36,41.41.45.45,0,0,0,0,.12c-12.29.13-24.36.49-36,1.21q-21.37,1.35-44.08,4a988.55,988.55,0,0,0-1.33-185,1383.23,1383.23,0,0,0-30.72-182.33,637,637,0,0,0-20-64.79,323,323,0,0,0-30.72-62.11A235,235,0,0,0,788.09,1316q-25.4-22-61.45-31.39-29.39-8-56.1-2.68a164.17,164.17,0,0,0-50.76,19.37,252.06,252.06,0,0,0-45.41,34.06A321.5,321.5,0,0,0,537,1376.8a454.47,454.47,0,0,0-44.75,72.13,485.81,485.81,0,0,0-31.39,79.48,378.65,378.65,0,0,0-14.69,83.48,332.12,332.12,0,0,0,5.34,84.15,234.62,234.62,0,0,0,23.38,66.13,258.84,258.84,0,0,0,40.74,56.77A223.83,223.83,0,0,0,569.69,1861a192.38,192.38,0,0,0,66.13,22q10.66,2.68,14-8t-7.35-13.36q-60.11-13.34-97.51-47.42a218.21,218.21,0,0,1-56.1-80.14q-18.69-46.09-19.36-98.85a415.63,415.63,0,0,1,52.09-205q26-46.74,60.77-81.48t78.81-46.08q44.09-11.34,89.5,12.69,45.39,22.73,68.79,66.12a452.53,452.53,0,0,1,36.73,90.16q37.38,136.24,40.07,281.85,0,56.1-4,112.2-97.53,20-177.66,76.14a509.29,509.29,0,0,0-53.43,43.41,388.73,388.73,0,0,0-48.09,53.43,246.65,246.65,0,0,0-33.39,60.77A173.66,173.66,0,0,0,569,2167.56a138.08,138.08,0,0,0,12,49.43,144.66,144.66,0,0,0,28.05,42.08,134.66,134.66,0,0,0,40.07,28.71q22.7,10.68,49.42,9.36,32.07-1.35,56.77-22.71a253.33,253.33,0,0,0,44.08-50.09,373.44,373.44,0,0,0,33.4-61.45q14-32.71,24.71-56.77a686.51,686.51,0,0,0,36.06-109.53,973,973,0,0,0,20-114.87q22.7-2.65,44.74-4.68c11.67-1.06,23.51-1.57,35.46-1.79,0,.84-.08,1.59-.08,2.46q0,12,.67,24a76.43,76.43,0,0,0,4.68,22.71,63.6,63.6,0,0,0,10.68,18.7q10.68,12,24,10.69t25.38-12a52.86,52.86,0,0,0,17.37-32.73,279.91,279.91,0,0,0,2.67-38.07v-18.7a133.86,133.86,0,0,0-1.34-18.7q21.36,2.68,38.74-5.34A40.87,40.87,0,0,0,1116,1841a116.24,116.24,0,0,1,.67,12.69q0,32.05,14.69,64.11c.88,2.67,2.68,3.8,5.35,3.34s4-2,4-4.67v-2.67l18.71-26.72q9.33-13.33,24-13.36,10.68,0,12,2c.88,1.33,4,2.9,9.35,4.67q13.34,6.69,24.71,12.69a135.76,135.76,0,0,0,24.71,10q28,6.71,53.43-6a194.33,194.33,0,0,0,33.87-21.53c2.06,13.49,4.5,26.73,7.52,39.56a305.43,305.43,0,0,0,12,40.07q1.32,4,6,4c3.11,0,4.21-1.78,3.34-5.34v-2.67q9.33-17.36,21.37-39.41t26.72-28.72q12-6.66,21.37-6a35.66,35.66,0,0,1,16.69,5.34,65.35,65.35,0,0,1,13.36,11.36,133.1,133.1,0,0,0,14,13.35q29.37,25.4,65.46,29.39,42.73,5.36,83.48-16a341.43,341.43,0,0,0,66.57-45.25c3.49,2.47,8.14,3.85,14.25,3.85q25.35,2.68,42.74-18t34.73-39.41q13.33,22.74,22,39.41t16.7,42.08a293.11,293.11,0,0,0-66.12,74.14,714,714,0,0,0-48.76,91.49q-12,26.73-19.37,60.77a245.21,245.21,0,0,0-5.34,66.79,133.46,133.46,0,0,0,18,60.11q16,27.36,52.09,40.75,37.4,13.34,62.79-.67t41.41-42.08a203.77,203.77,0,0,0,22.7-61.45q6.68-33.39,6.68-60.1a675.53,675.53,0,0,0-7.35-116.21A607.36,607.36,0,0,0,1858,1903.09q16-10.68,33.4-20t36.07-17.36c3.54-1.78,4.67-3.78,3.33-6S1927,1856.34,1923.44,1856.34ZM861.55,2030q-8,26.74-24.71,72.14a518.56,518.56,0,0,1-41.4,86.82q-24.74,41.39-56.77,67.45t-70.8,14q-25.38-8-41.41-24A112,112,0,0,1,601.75,2209a139.69,139.69,0,0,1-10-45.41,136.89,136.89,0,0,1,5.34-46.76q13.33-46.73,47.41-85.48a443,443,0,0,1,72.8-66.78,393.51,393.51,0,0,1,82.15-48.09,521.89,521.89,0,0,1,90.16-29.39A844.54,844.54,0,0,1,861.55,2030Zm191-217.72c-2.66-.88-4-2.21-4-4Zm12,70.79q0,9.36-4,29.39t-17.36,21.37q-9.36,1.35-14.7-4a28.17,28.17,0,0,1-7.35-14,116.79,116.79,0,0,1-2.67-17.37c-.45-5.77-.66-10.45-.66-14q-1.35-40.08,21.37-69.46,2.65,5.35,9.35,8.68t13.36,6V1831q1.3,6.69,2,12a87.41,87.41,0,0,1,.67,10.69A165.34,165.34,0,0,1,1064.57,1883.05Zm796.09,163q4,25.4,4.68,70.79a369.92,369.92,0,0,1-8.69,86.83q-9.36,41.38-31.39,66.79t-63.45,10.68q-38.76-13.35-51.43-44.74t-10.68-68.13a269,269,0,0,1,14.69-73.46q12.67-36.73,24.72-60.78a701.54,701.54,0,0,1,38.73-66.12,211.05,211.05,0,0,1,50.76-52.76,591.9,591.9,0,0,1,20.7,63.45A377.25,377.25,0,0,1,1860.66,2046Z"/>
        <path d="M2642.06,1658.64A801.34,801.34,0,0,0,2503.8,1660q-70.11,6.7-136.91,17.37-34.74,6.69-70.79,12.69t-70.79,14q0-88.17,8-173t12-173A1814.93,1814.93,0,0,1,2460.4,1298q56.1-12,111.53-20t111.54-14.7a834,834,0,0,1,105.52-4,448.89,448.89,0,0,0,104.19-9.35q6.66-2.67,6.67-8.69t-6.67-7.34q-49.44-10.68-104.19-6t-105.52,10q-56.1,5.36-110.2,14t-108.87,19.37Q2354.85,1294,2246,1327.38a1001.79,1001.79,0,0,0-206.37,89.49c-2.68,1.8-3.35,4-2,6.68s3.34,3.57,6,2.68q46.76-16,92.16-32.06t92.17-30.73a960.82,960.82,0,0,0-24.71,172.31q-4.7,88.17-3.34,175a784,784,0,0,0-102.86,36.06q-10.67,5.35-6,16c3.14,7.15,8.24,9.35,15.36,6.69q24-9.35,47.43-18t47.41-16.7v4q2.67,96.18,14,191.68t31.39,190.34c.87,4.47,2.67,7.15,5.34,8a16.14,16.14,0,0,0,8,.66c2.68-.43,5.12-2,7.35-4.67a10.09,10.09,0,0,0,2-9.35q-18.72-96.16-29.38-193t-13.36-195.69q34.72-10.68,70.13-19.37T2370.9,1692q68.11-10.68,136.25-14.69A981.88,981.88,0,0,0,2642.06,1660C2642.94,1659.1,2642.94,1658.64,2642.06,1658.64Z"/>
        <path d="M3287.83,1920.45a1178.57,1178.57,0,0,1-14-167q0-26.71.66-54.77t2-54.77q6.68-50.75,9.36-102.18t6.68-102.19l4-46.75c.87-4.45-1.57-7.12-7.36-8s-9.13,1.33-10,6.67q-13.37,78.84-20.7,157t-10,158.29q-5.35,30.75-10,58.11t-18,56.76q-20,44.09-52.1,76.14t-61.44,34.73q-25.4,2.7-41.41-12.69t-17.36-40.73v-1.34q9.32-6.68,21.37-16t9.34-22.71a18.7,18.7,0,0,0-8-12.69c-4.47-3.11-8.91-4.68-13.36-4.68-9.8-.87-17.82,1.34-24,6.69a49,49,0,0,0-14,20.7,74.9,74.9,0,0,0-3.28,12.06,471.68,471.68,0,0,0-56.8,34q-32.75,22.73-55.43,49.42-5.35-16-10-30.71a136.92,136.92,0,0,1-6-28.73,54.32,54.32,0,0,1,4-26.71q5.31-12.67,20-22,6.67-5.31,4-12t-10.68-4q-26.74,6.7-35.4,20.71t-6,32.72q-18.72,9.38-37.4,16.7a227,227,0,0,0-36.07,18,20.34,20.34,0,0,1-3.34-8,20.82,20.82,0,0,0-3.34-8q-4-8-12.68-18.71a127.71,127.71,0,0,1-14-20.7q-5.36-10-4-19.37c.88-6.22,6.68-12,17.37-17.36q6.66-2.67,4-9.35t-9.35-4q-10.71,5.35-21.37,11.35t-13.36,19.37q-4,16,6.68,26c2.49,2.34,4.85,4.73,7.23,7.11-3,4-6.28,8.45-9.88,13.6a133,133,0,0,1-20.7,23.38q-11.37,10-23.38,13.36t-24.05-7.35a65.87,65.87,0,0,1-21.37-42.74,393.29,393.29,0,0,0-8-48.09,12.28,12.28,0,0,0-9.35-8c-4.47-.87-7.58.9-9.35,5.35a56.43,56.43,0,0,0-4.68,26A132.85,132.85,0,0,0,2618,1871a33.6,33.6,0,0,0-2,4.68,42.26,42.26,0,0,1-2,4.67c-.89,2.67-3.13,6.68-6.68,12a24.46,24.46,0,0,1-14,8.68q-8.69,2-12.68-7.35a88,88,0,0,1-6-35.4q.66-18,.67-35.4c0-3.54-1.57-5.55-4.68-6s-5.14,1.12-6,4.66q-8,29.42-1.34,64.12a76.73,76.73,0,0,0,6,20q4.66,10.71,15.36,13.36,14.68,4,24.71-5.34t16.7-24q14.68,32.05,42.74,42.74,14.68,5.35,28.06-.67a92,92,0,0,0,25.38-17.36,146.47,146.47,0,0,0,21.37-25.38c3.26-4.9,6.13-9.47,8.67-13.76,1.55,1.7,3.16,3.36,4.67,5.08a90,90,0,0,1,17.36,37.4,139,139,0,0,0-32.05,28q-4,5.36-9.35,14a73.29,73.29,0,0,0-8,18q-2.65,9.36,0,16.69t13.36,11.36c7.12,1.79,13.56,1.13,19.37-2a51.94,51.94,0,0,0,16-14,99.66,99.66,0,0,0,12-19.37,71.39,71.39,0,0,0,6-18,94.61,94.61,0,0,0,0-38.73q32.05-18.71,73.46-32.06a145.26,145.26,0,0,0,12,40.74q9.32,20.71,14.69,36.73a181.13,181.13,0,0,0-12.69,20.7,115.53,115.53,0,0,0-9.35,23.38,84.83,84.83,0,0,0-3.34,22.71,25.58,25.58,0,0,0,8,18.69q14.68,13.38,26.72,2.68a51.58,51.58,0,0,0,16-25.38,71.25,71.25,0,0,0,1.33-30.72,173.16,173.16,0,0,0-9.35-33.4,33.35,33.35,0,0,1,6-8.68l4.67-4.68a403.75,403.75,0,0,1,50.75-42.74,352.83,352.83,0,0,1,44.1-26.91c0,.29,0,.58,0,.87a103,103,0,0,0,2.67,24.71q9.35,26.73,36.73,40.74t54.1,10q14.68-1.32,32.06-11.36a190.15,190.15,0,0,0,33.4-24.71,276.92,276.92,0,0,0,29.38-31.39,186.58,186.58,0,0,0,21.37-32.73l10.69-22.7V1827q6.66-14.68,13.36-37.4,2.66,76.14,12,154.94t44.08,146.94c2.67,5.34,6.88,6.68,12.69,4s7.78-6.67,6-12A1505.24,1505.24,0,0,1,3287.83,1920.45ZM3053.41,1851c4.44.9,4.44,3.14,0,6.68Zm-279.15,98.85a33.8,33.8,0,0,1-6.67,20q-4,9.38-10.69,13.36c-4.47,2.67-8.69,3.8-12.69,3.34s-6.68-3.11-8-8,.23-11.36,4.68-19.37c.9-2.68,4.21-6.68,10-12s10-9.35,12.69-12a76.07,76.07,0,0,1,6-5.34,75,75,0,0,0,6-5.34Q2778.26,1939.18,2774.26,1949.84Zm126.23,75.47c-2.23,3.13-4.91,4.47-8,4s-6-2.21-8.69-5.35-3.56-7.34-2.66-12.69a138.43,138.43,0,0,1,4.67-16.7,74,74,0,0,1,11.35-20.7q2.66,10.71,4,17.37a27.6,27.6,0,0,1,1.34,8.68,41.27,41.27,0,0,0,1.33,10Q2903.83,2020.66,2900.49,2025.31Z"/>
        <path d="M3549,1859.67c-4.47-1.33-6.68.23-6.68,4.68q0,8-7.35,30.72t-16,48.76q-8.72,26-16.7,48.75t-10.69,30.73q-4,12-14,36.06t-23.38,40.07q-13.37,16-28.05,14t-28-40.74Q3379.31,2022,3370,1959.19t-12-114.87a1778.43,1778.43,0,0,1-.67-233.76q7.32-114.87,26.05-232.42c1.77-8-1.34-12.9-9.36-14.7s-12.92,1.34-14.68,9.35q-26.75,153.63-30.73,317.92t24,319.24a340,340,0,0,0,9.35,36.73,212.16,212.16,0,0,0,17.37,41.41q10.66,19.38,26.05,30.72t38.07,3.34q20-6.68,38.73-40.74a515.6,515.6,0,0,0,33.4-75.47q14.67-41.39,24.71-80.81t14-56.77C3555.19,1863.91,3553.42,1861,3549,1859.67Z"/>
      </g>
      <g>
        <path d="M1767.4,1100.11a194.12,194.12,0,0,0,7.58-27.2,167.7,167.7,0,0,0,3.09-29.56,129.83,129.83,0,0,0-1.16-20c.56.29.93.48,1.29.68a89.75,89.75,0,0,1,16,11.29,99.41,99.41,0,0,1,32,54,89.65,89.65,0,0,1,2.12,24.66,1.51,1.51,0,0,1-.91,1.4,128.31,128.31,0,0,1-31,12.28,161.89,161.89,0,0,1-31.4,4.83c-2.74.16-5.49,0-8.27,0a3.69,3.69,0,0,1,.12-.54C1760.36,1121.35,1763.74,1110.69,1767.4,1100.11Z"/>
        <path d="M1661.46,1037.45a1.09,1.09,0,0,1,.14-.29c.21-.21.44-.42.67-.63a97.16,97.16,0,0,1,20.3-14.17,99,99,0,0,1,38-11.13,102.51,102.51,0,0,1,20,.32,96.85,96.85,0,0,1,22.51,5.39,1.33,1.33,0,0,1,.72.85,118,118,0,0,1,2.25,21.93,163.7,163.7,0,0,1-7.52,49.46,6.66,6.66,0,0,1-.35.74c-2.88-2.07-5.68-4.08-8.47-6.1-6.21-4.48-12.56-8.79-18.61-13.5a186.5,186.5,0,0,0-22.53-15.27A151.13,151.13,0,0,0,1661.46,1037.45Z"/>
        <path d="M1673.11,1107.63a161.28,161.28,0,0,0-32.88,38.48c-.85,1.4-1.67,2.81-2.59,4.34-.25-.56-.43-.93-.59-1.32a101.16,101.16,0,0,1-6.8-23.57,98.11,98.11,0,0,1,20.79-77.4,1.7,1.7,0,0,1,1.76-.7,135.81,135.81,0,0,1,32.37,8.92,160.41,160.41,0,0,1,32.87,18.33c-8.19,5.94-16.25,11.92-24.48,17.69C1686.6,1097.28,1679.55,1102,1673.11,1107.63Z"/>
        <circle cx="2120" cy="1020.43" r="30.94"/>
        <path d="M1970.15,1099c6.89,0,12.06,4.8,12,11s-5.55,11.58-12.35,11.59q-13,0-26,0c-8.77,0-17.55.2-26.31-.11a16.59,16.59,0,0,1-8-2.47c-4.1-2.63-5.3-7.8-3.68-12.53s5.79-7.5,11.42-7.51Q1943.68,1098.89,1970.15,1099Z"/>
        <path d="M1440.82,1198.46a11.08,11.08,0,0,1-9.1-13.44c1.29-5.75,5.61-8.85,12.45-8.85h167.5c-.06-.08-.15-.16-.2-.24-12.28-21.82-18.16-45.28-16.91-70.28,2.39-47.63,23.87-84.52,63.93-110.21,26.18-16.79,55.2-23,86-19.67,28.15,3,53.17,13.89,74.2,32.9,34.21,30.92,49.91,69.39,45.1,115.58a128.57,128.57,0,0,1-17.11,51.57c-.06.11-.2.22-.28.34h90q39.18,0,78.36,0c5.88,0,9.93,3,11.46,8.18,1.74,5.92-1.88,14.48-12.73,14.47q-284.58-.16-569.15-.09A22.51,22.51,0,0,1,1440.82,1198.46Zm289-22.3a155.13,155.13,0,0,1-14.27-31.15c-.12-.34-.19-.68-.23-.82,6.08,0,12.06-.07,18,0,16.18.22,32.36.48,48.45-1.71a144.42,144.42,0,0,0,35.58-9.35c3-1.25,6-2.63,9.21-4-.09.55-.14.92-.21,1.29a97.29,97.29,0,0,1-22.64,45.49l-.27.27h16.4c17.17-24,24.49-50.13,21.13-79-3.45-29.57-16.88-54-39.53-73.18a111.92,111.92,0,0,0-139.25-4.29c-21.37,16-35.83,36.82-42.3,62.7-8.48,33.89-1.9,65,18.31,93.77h16.42a97.21,97.21,0,0,1-9.38-12.05,1.88,1.88,0,0,1-.1-1.52,122.33,122.33,0,0,1,14.56-23.5,165,165,0,0,1,26.86-27c1.58-1.29,3.25-2.47,5-3.78l1.08,3.22c3.12,9.54,6.46,19,9.32,28.62a189.2,189.2,0,0,0,12.69,32.38c.63,1.23,1.31,2.43,2,3.64h13.18Z"/>
        <path d="M1572.52,1257.48c-9,0-17.94.12-26.91-.08a10.72,10.72,0,0,1-10.12-14.17c2-5.52,6.24-8.23,13.1-8.23h321.77c13.66,0,27.32-.08,41,0,6.73.06,11.35,4.88,11.3,11.34,0,6.31-4.7,10.88-11.28,11.07-1.3,0-2.6,0-3.89,0H1572.52Z"/>
        <path d="M1665.76,1316.33c-5.71,0-9.85-2.94-11.36-7.92-2.3-7.62,3.07-14.6,11.44-14.65,13.16-.08,26.32,0,39.48,0h86.44c5.23,0,9.41,1.84,11.56,6.86,3.35,7.86-2.18,15.73-11,15.74q-31.71,0-63.41,0Q1697.32,1316.32,1665.76,1316.33Z"/>
        <path d="M1553.61,1110.23c.08,6.59-5,11.32-12.32,11.34-8.67,0-17.34,0-26,0s-17.54,0-26.31,0c-7.4,0-12.37-4.55-12.4-11.25s4.94-11.34,12.31-11.36q26.16,0,52.32,0C1548.54,1099,1553.52,1103.53,1553.61,1110.23Z"/>
        <path d="M1725.55,934.26a11,11,0,0,1-7.7-10.31c-.1-9.17,0-18.34,0-27.51h0c0-9,0-17.93,0-26.9,0-6.81,4.83-11.78,11.24-11.79s11.24,4.9,11.27,11.77c.07,17.84.11,35.68-.07,53.52a14.36,14.36,0,0,1-2.25,7.22C1735.4,934.35,1730.25,935.74,1725.55,934.26Z"/>
        <path d="M1870.36,984.63a19,19,0,0,1-4.21,3.28,11.39,11.39,0,0,1-16.83-8.67c-.42-4.13,1.61-7.25,4.41-10q18.43-18.13,36.87-36.28a19.28,19.28,0,0,1,4-3.08c7.39-4.08,16.37,1.34,16.3,10.79,0,2.55-1.76,5.2-4.18,7.61C1894.59,960.37,1882.51,972.53,1870.36,984.63Z"/>
        <path d="M1553.12,929.51c4.43-2.1,9.09-1.24,13.11,2.77,12.71,12.68,25.41,25.36,37.91,38.23,1.94,2,2.81,5,3.5,6.33-.22,6.3-2.48,9.68-6.63,11.55-4.88,2.21-9.34.65-12.89-2.84q-19.27-19-38.19-38.37a13.09,13.09,0,0,1-3.15-6.85C1546.08,935.62,1548.77,931.56,1553.12,929.51Z"/>
        <path d="M2544.79,759.81l17.93-13.29c-1.5-3-2.95-5.9-4.77-9.55l15.9-12.44-19-26.27c-14.8,9.08-29.57,17.39-43.48,27-7.57,5.2-13.81,5.94-20.66,0-10.76-9.3-19.49-6.74-29.82,2.23-18.08,15.7-37.6,29.74-56.52,44.48l.36,3.46c3.55-.54,7.83,0,10.51-1.8,13.38-9.05,26.34-18.72,40.53-27.05l-36.07,38.78,2.07,2.38,39.48-27.86,1,1.19c-10.21,10.86-20.41,21.73-31.56,33.58l78.8,60.79-.93,1.51c-2.88-1.53-5.83-2.94-8.61-4.61-44.73-26.92-89.65-53.55-134-81-12.86-8-26.23-11.17-40.89-13.86-27.69-5.07-49.48.51-65.59,24.7-3.64,5.47-9.65,9.36-17,16.23L2271,755.08c-7.28.24-7.27.25-18.51,16.13-4.85,6.85-9.76,13.64-16.7,19.51,2.67-11.06,5.63-22.07,7.86-33.22.65-3.28.59-8.29-1.38-10.27q-33.66-33.88-68.79-66.58l56.32,77c-.64,1.06-1.27,2.13-1.9,3.19-3.78-1.68-8.23-2.58-11.21-5.18-20.1-17.54-39.89-35.44-61.53-51.94l66.06,90.33-2.43,3.39c-3.76-1.9-8.1-3.13-11.19-5.8-14.86-12.86-29.39-26.11-45.9-37.82q8.16,12.1,16.33,24.22c2.17,3.2,4.65,6.22,6.56,9.57,13.31,23.33,28.51,43.76,61.42,37.93-.46,1.33-.93,2.66-1.4,4l-125.67,13.59c-.25-1.07-.17-.73-.43-1.8l37.38-13.83c-6.08-4.88-10.76-8.68-15.48-12.44-25.11-20-50.1-40.19-75.45-59.9-5.17-4-6.71-7.73-4.17-13.67,1.67-3.88,2.49-8.12,3.93-12.12,9.49-26.34,10.48-57.34,42-71.41L2089.83,642,2115,620l-26.45-24.85c-1.27,1.18-4,3.62-6.67,6.21-30.3,29.89-61.82,58.67-90.48,90.06-21.54,23.6-55,120.05-71.78,92.73-14.53-23.65-38.42-43.13-38.89-43.76C1890,737.3,1912.8,724.9,1921,717c56.38-54.1,113.85-107.07,170.91-160.47,3.91-3.66,7.81-7.33,12.58-11.81,5.59,6.26,10.69,11.93,15.74,17.63,46.7,52.71,93.25,105.54,140.32,157.92,4.1,4.56,11.31,7.92,17.48,8.72,20.7,2.68,41.68,3.22,62.34,6.11,8.65,1.21,17.36,5.24,25,9.8,9.53,5.72,17.94,13.3,27.58,20.64,23.63-21.13,47.36-41.53,70-63,8.26-7.84,15.68-10.24,25.36-4.67,9,5.19,16.14,2.75,24-3.35,16.8-13,34.35-25,52.63-38.21,2.83,3.41,5.52,6.48,8,9.69,38.9,50.1,77.64,100.32,116.81,150.21a72.14,72.14,0,0,0,18.77,16.79q52.5,32.55,105.1,64.93a389.75,389.75,0,0,1,85.57,71.46c-26.58-13.66-90.78-38.07-117.37-51.72-3.31-1.7-6.73-3.21-11.17-2.86l52.86,33.64a432.32,432.32,0,0,1,70.31,55.79c-33-14.5-98.21-45.13-131.17-59.61-.86,1.64-.52,1-1.38,2.66L2823.72,987a440.32,440.32,0,0,1,70.14,55.43c-28.38-12.45-89-41-117.37-53.47l-1.19,2.29,56.7,36.1a201.24,201.24,0,0,1,51.11,46.61c-63.57-28.06-148.7-66.89-212.72-95.14,1.81-7.54,2.75-14.88,5.38-21.57,3.49-8.89,1.13-13.81-7.82-16.31-2.14-.6-4-2-6.72-3.38,1.67-6.95,3.43-13.6,4.84-20.32,1.24-5.92,6-12.14-2.1-17.48-1.26-.84-.2-6.76,1.14-9.72,9.48-21.08,4.59-38.31-10.66-55.36-13.86-15.48-24.93-33.46-37.27-50.32-.32-.43-1.14-.5-3.6-1.5,11.82,24.92,23,48.49,34.15,72l-1.48.9-53.2-70.63-2,1.23,42.39,89.23-1.94,1.17-56.86-75.56L2572,802.8,2619,901.71l-1.65,1-88.51-117.89,20.71-15.27C2548.05,766.57,2546.64,763.65,2544.79,759.81Zm-449.24-33.74c-3.48,7.45-6.3,13.52-9.4,20.15L2137,781.11l1.57-2.13Z"/>
        <path d="M2229.16,901,2343.3,766.7l171.09,122.85-115.78-46.11,102.44,73.92s-35.28-12.21-55.2-18.44c10.1,17.83,19.27,34.06,29.32,51.82C2470.32,949.81,2229.16,901,2229.16,901Zm120.78-62.78c-.54.79-1.07,1.59-1.61,2.39l66.38,42.14C2403.63,849.35,2372.21,851,2349.94,838.17ZM2364.43,874c3.81,11.22,6.3,19.63,9.6,27.72,1.16,2.82,3.87,6.13,6.59,7,20.11,6.59,40.41,12.62,62.16,19.29C2426.76,894.48,2394.44,888.86,2364.43,874Z"/>
        <path d="M2449,788.38c1.84-1.37,3.57-2.87,5.25-4.24l68.58,70.08-80.21-61.61C2445.8,790.54,2447.48,789.54,2449,788.38Z"/>
        <path d="M2026.93,677.12c-15,16.74-21,42.55-48.68,47.25C1986.46,700,2007.19,689.05,2026.93,677.12Z"/>
        <path d="M2280.28,1252.83a11,11,0,0,1-11.21-10.86c-.36-41.74-.67-160.16-.93-175.69-1.7-103-86.86-186.8-189.83-186.8H1941.42a58.17,58.17,0,0,1-47-23.88l-44.57-61.07a33.8,33.8,0,0,0-27.3-13.88h-184.4a33.8,33.8,0,0,0-27.3,13.88l-44.57,61.07a58.16,58.16,0,0,1-47,23.88l-126.18-.36c-214.58,0-387.51,181.74-373,399.37,12.34,184.64,161.15,334.2,345.74,347.29,169.82,12,322.91-89.52,379.13-246.45a12.22,12.22,0,0,1,15.24-7.65h0a12.16,12.16,0,0,1,7.8,15.55c-59.8,167.34-223,275.69-404,262.84-193.86-13.77-362.76-190-368.93-384.25-7.15-225.4,174.13-411,398-411l126.2.36a33.79,33.79,0,0,0,27.29-13.86l44.59-61.1a58.17,58.17,0,0,1,47-23.86h184.4a58.29,58.29,0,0,1,47,23.88l44.56,61.06a33.81,33.81,0,0,0,27.32,13.88h136.9c116.17,0,212.25,94.54,214.17,210.75.26,15.54.57,134.39.93,175.86a11,11,0,0,1-10.77,11Z"/>
        <polygon points="1087.98 975.9 966.39 970.12 1004.1 932.41 1087.98 975.9"/>
        <polygon points="992.31 927.38 958.81 960.88 958.81 914.84 992.31 927.38"/>
        <polygon points="1087.77 962.05 1012.5 924 1049.72 886.78 1087.77 962.05"/>
        <polygon points="991.62 875.41 996.17 916.35 962.88 904.15 991.62 875.41"/>
        <polygon points="1095.84 840.67 1101.63 962.26 1058.13 878.37 1095.84 840.67"/>
        <polygon points="1040.56 833.09 1086.6 833.09 1053.1 866.59 1040.56 833.09"/>
        <polygon points="1002.99 877.27 1038.42 881.27 1006.99 912.7 1002.99 877.27"/>
        <polygon points="1001.13 865.9 1029.88 837.15 1042.08 870.45 1001.13 865.9"/>
      </g>
      <g>
        <path d="M1338.16,1496.91c.82,2.06,1.49,2.17,3.08.61a55.78,55.78,0,0,0,10-13c.41-.74.88-1.44,1.42-2.33,2.18,5.14,1.61,9.58-2.25,13.42l2.78,2.35c-.76,1.75-1.44,3.52-2.28,5.21a13,13,0,0,0,.16,12.34,5.37,5.37,0,0,1-.58,6.29,2.88,2.88,0,0,0,0,4,2.37,2.37,0,0,1,.34,1.72,14.48,14.48,0,0,1-1,3.67c-1.09,2.33-.3,4.08,1.29,5.8a6.32,6.32,0,0,1,1,2.19c.13.37,0,.84.17,1.19,1.92,4.25.38,8.52,0,12.74-.19,1.89,0,3.16,1.78,3.94,1.59.69,1.65,1.88,1.12,3.32a31.12,31.12,0,0,0-1.58,4.75,7.47,7.47,0,0,0,.52,2.87c.06.26.4.44.48.7,1,3.15,3.15,4.06,6.28,3.79a16.74,16.74,0,0,1,4.62.62c3.82.78,6.55-1.24,6.4-5.09-.08-2.18.12-4,1.58-5.79a3,3,0,0,0,.21-2.6c-1.7-3.55-2.11-6.94-.46-10.75.65-1.52-.05-3.77-.51-5.58-.72-2.82-1.18-5.46.63-8.1,1.63-2.39,1-4.94-.2-7.28-1.06-2.15-.34-3.86,1-6,.51,3.35.91,6.35,1.44,9.32a11,11,0,0,0,1.12,3.2A8.81,8.81,0,0,1,1378,1540a20.21,20.21,0,0,0,2.42,12.87,2.21,2.21,0,0,1-.25,3c-2.36,2.25-1.83,5.18-1.86,8a1.57,1.57,0,0,0,.84,1.11,5,5,0,0,0,2,.42c3.59,0,7.17,0,10.75-.07a8,8,0,0,0,2-.41c3.8-1.08,4.43-2.58,2.17-5.83a5.08,5.08,0,0,1-.52-5.53c1.53-3.71,2.62-7.68,1.55-11.82-.42-1.63-.15-2.91,1.49-3.72s1.89-2.19,2.31-3.77a12.75,12.75,0,0,0-1.9-10.69c-1.08-1.69-1.45-3.83-2.15-5.77a8.38,8.38,0,0,0-1-2.55c-2.24-2.61-2.13-5.62-1.79-8.72.19-1.72.32-3.45.59-5.15a2.32,2.32,0,0,1,.9-1.44,16.71,16.71,0,0,1,3.25-1.62c1.53-.55,1.75-1.44,1.65-3-.38-6.26-2.18-12.12-4.33-18a18.79,18.79,0,0,1-.62-5.65c-.13-3.41-.08-6.82-.18-10.23-.08-3.07.28-5.88,3.13-7.79,1.4-.94,2-2.19.69-3.73-.77-1-.49-1.82.13-2.81,2.15-3.42,4.23-6.88,6.28-10.36a6.71,6.71,0,0,0,.77-2.27,72.18,72.18,0,0,0,.36-18.86,6.52,6.52,0,0,0-.36-1.51,11.94,11.94,0,0,0-.6-1.25c2.32-1,2.79-2.21,1.46-4.38a37.81,37.81,0,0,0-3.31-4.63c-3.7-4.37-5.35-9-2.81-14.64,3.3-7.32,6.42-14.73,9.5-22.15a40.8,40.8,0,0,0,3.11-11.31c.35-3.16,1.59-6.23,2.43-9.35l.42.09c-.35,2-.58,4.09-1,6.09-1.86,7.93-1.38,16-1.43,24a132.89,132.89,0,0,1-1.18,15.55c-.24,2-1.5,3.85-2.07,5.83a14.67,14.67,0,0,0-.61,4.6c0,.68,1.07,1.31,1.72,2-1,3.54-2.24,7.27-3.13,11.08a28.51,28.51,0,0,0-.59,6.53,152.86,152.86,0,0,1-1.49,24.74,14,14,0,0,0,.54,4.77,23.85,23.85,0,0,1,.84,4.22,33.82,33.82,0,0,0-1.08,3.78c-.37,2.16-.63,4.34-.83,6.53a7.48,7.48,0,0,0,.21,2.71,24.38,24.38,0,0,1,.9,10.8,35.51,35.51,0,0,0-.66,6.72,17.68,17.68,0,0,0,1.19,5.85c1.4,3.49,3.22,6.8,4.69,10.25a17.19,17.19,0,0,1,.83,4c.4,2.45.58,5,1.2,7.33a7.7,7.7,0,0,0,2.17,3.41c2.09,2,3.9,3.9,4.64,6.87.52,2.06,2.11,3.83,3,5.83a18.65,18.65,0,0,1,1.17,4.62c.4,2.86.69,5.74.93,8.62a9.51,9.51,0,0,1-3.13,8.23c-2,1.81-4.23,3.44-6.13,5.37-3.76,3.82-2.5,9.38,2.62,10.84a84.76,84.76,0,0,0,10.72,1.82,3.63,3.63,0,0,0,3.5-1.49c2-2.58,4.12-5.14,6.1-7.77,1.27-1.68,2.56-3.24,4.65-4,3.45-1.25,5-3.68,4.36-7.4-.35-1.92-.62-3.87-1.08-5.76-.31-1.23-.43-2.23.77-3.06a2.19,2.19,0,0,0,.68-3c-3-6.84-4.76-14.17-3.92-21.45.71-6.09-.37-12-.12-17.93.37-8.8-2-17.31-2.43-26-.14-2.8-.17-5.42,1.19-8.08a11.7,11.7,0,0,0,1.17-6c-.87-10.23.4-20.33,1.49-30.44.18-1.59.36-3.17.66-4.72.61,8.3,1.34,16.59,1.79,24.89.35,6.53.32,13.07.51,19.61a13.44,13.44,0,0,0,.57,3.39,46.22,46.22,0,0,0,2.2,6.21,5.91,5.91,0,0,1,0,5.87,5.74,5.74,0,0,0-.39,3.49,39.55,39.55,0,0,1,.14,13.6c-.66,3.95-.4,8.06-.41,12.11,0,6.36.28,12.73.1,19.09-.1,3.74-.86,7.46-1.31,11.19a14.44,14.44,0,0,0-.19,2.93,27.13,27.13,0,0,1-2.61,14.12,12.45,12.45,0,0,0-.75,4.38c-.08,1.38.21,2.77.22,4.15,0,4.39.88,5.64,4.7,6.18h12c0-.1,0-.18.07-.19,4.28-1.13,6-3.81,4.91-8.12a45.64,45.64,0,0,0-2.41-5.92l-.83-2.06a6.61,6.61,0,0,1,1.07-.18c4.08-.12,6.35-2.5,6.24-6.52-.05-1.79-.09-3.59-.1-5.38,0-2.56.13-5,1.68-7.3a15.11,15.11,0,0,0,1.36-3.55c1.64-4.5,3.32-9,4.87-13.51a14.1,14.1,0,0,0,.71-4.18c.06-3.12-.32-6.26-.06-9.36.52-6.2,1.38-12.36,2-18.55.31-3,.32-6.13.62-9.17a23.39,23.39,0,0,1,1.11-6.46,27.55,27.55,0,0,0,1.26-16.19c-.6-3,.11-5.75.45-8.59s.68-5.41,1.25-8.06c.71-3.31-.44-6.41-.78-9.6-.3-2.76-1-5.5-1-8.25,0-2,.87-4,1.26-6a10,10,0,0,0,.27-3.17c-.33-2.47-.85-4.9-1.31-7.34a5.19,5.19,0,0,1,.54-2.46,14.41,14.41,0,0,0,.15-5.67c-.42-2.94-1.26-5.82-1.8-8.74-.28-1.56.74-2.43,2.05-3,2.4-1.15,2.39-1.23,1.81-3.86a7,7,0,0,1-.3-3.23c1.21-4.07.46-8.07-.25-12a57.17,57.17,0,0,1-.34-15.73c.21-2.2-.34-4.47-.34-6.71a18.78,18.78,0,0,1,.62-3.82,56.4,56.4,0,0,0,1.19-5.69,63,63,0,0,0,0-6.3l.5-.06,3,9c.21.09.33.19.41.16,1.89-.57,2.56.36,3.33,2,3.77,8.07,5.28,16.74,7,25.34,1.6,8,3,16,4.28,24,.2,1.25-.48,2.65-.76,4a.36.36,0,0,1-.08.15,20.47,20.47,0,0,0-3.39,17.44c.36,1.49-.14,3.18-.08,4.78,0,.93.13,2.35.71,2.68,1.2.7,1.88-.56,2.49-1.48a2.63,2.63,0,0,1,1-1c-.27,1.85-.5,3.72-.83,5.57-.51,2.9.23,3.68,3.16,3.08a8.23,8.23,0,0,0,.2,1.24,1.45,1.45,0,0,0,2.34.74c.82-.75,1.69-1.45,2.51-2.19a3.9,3.9,0,0,0,.9-1c.73-1.48,1.45-2.82,3.51-2.54.34,0,1-.73,1.18-1.24.73-1.82,1.37-3.68,2-5.55.91-2.82,1.53-5.62.38-8.61-1-2.58-1.44-5.37-2.52-7.91-1.57-3.71-.92-7.43-.45-11.12a122.53,122.53,0,0,0-1-39.9c-1.09-5.46-3.26-10.7-4.94-16-.19-.6-.42-1.19-.69-2l4.61-1.5c-1.43-3.17-2.79-6.27-4.21-9.35-3.69-8-6.74-16.24-11.52-23.68a27.71,27.71,0,0,1-1.58-3.65c-2.21-4.89-6.75-6.73-11.27-8.58-3.63-1.5-7.35-2.82-10.88-4.51a7.77,7.77,0,0,1-3-3.2c-1.91-3.43-4.62-5.19-8.58-5.07a20.41,20.41,0,0,1-3.33-.37c-.12-1.82-.24-3.39-.32-5a2.45,2.45,0,0,1,.16-.84c1-3.17,2-6.33,2.91-9.49a2,2,0,0,0,0-.69c-.14-3.69.11-7.44-.52-11-.65-3.77-1.57-7.73-5.14-10.1a64.8,64.8,0,0,0-6.37-3.66,10.78,10.78,0,0,0-2.41-.33,8.36,8.36,0,0,1-1.5-.68h-3.47l.44.71-7.48,1.67a13.49,13.49,0,0,1-1.51.31,12.33,12.33,0,0,0-6,2.56c-1,.74-2.3,1.12-3.24,1.91a11.07,11.07,0,0,0-4,7.87c-.17,2.06-.84,4.08-1.13,6.14a28.51,28.51,0,0,0,.21,2.88c0,1.34-.59,2.8-.21,4,1.07,3.41.36,7.67,4.38,9.8a3.76,3.76,0,0,1,1.93,3.6,22.91,22.91,0,0,0,.56,4.29,1.68,1.68,0,0,1-.85,2,5.77,5.77,0,0,0-1.94,2.52c-1.48,4.23-4.4,7-8.16,9.27s-8.06,4.11-11.18,7.49a15.26,15.26,0,0,0-2.26,3,59,59,0,0,0-6.8,24.68c-.14,2.68-1,5.32-1.45,8a7.7,7.7,0,0,0,.46,2.12,4,4,0,0,1,.07,1.88c-1.81,4.87-3.49,9.81-5.6,14.55-3.35,7.5-4.17,15.46-4.84,23.48-.3,3.52-.77,7-.93,10.54-.2,4.33-.13,8.66-.22,13,0,2.53-.26,5-.25,7.58s.57,5,.2,7.43c-.59,3.89,1.26,6.47,3.63,9.06,1.78,1.94,3.4,4,5,6.1a2.16,2.16,0,0,1,.2,1.16c.08,1.45.13,2.89.18,4.34.1,2.85-.82,4.15-3.54,5a2.87,2.87,0,0,0-1,.38c-2.54,2.36-5.62,2.67-8.88,2.56a13.43,13.43,0,0,0-3.16.66,2.26,2.26,0,0,1,.83-2.79c.45-.35.61-1.12.85-1.72a18,18,0,0,0,.73-2.22,8.31,8.31,0,0,0,.15-1.8c0-1.37,0-2.74-.08-4.1a37.06,37.06,0,0,0-.58-6.17,55.71,55.71,0,0,0-2.64-8,5.61,5.61,0,0,0-2.32-2.71,71,71,0,0,0-6.81-2.79c-.27-.1-.7-.25-.84-.14-2,1.76-3.57-.32-5.24-.17l-2.19.93a9.82,9.82,0,0,0-1,.46c-1.65,1-3.31,2-4.91,3.06-.74.5-1.32,1.26-2,1.82a15.34,15.34,0,0,0-2.7,2.35l-3.55,7.51-.22-.2v2.13c0,2.25,0,4.5-.06,6.76a.73.73,0,0,0,.17.47c1.71,2,3.54,3.91,5.14,6a51.2,51.2,0,0,1,3.3,5.23c.13.21,0,.68-.17,1-1.6,3-3,6.22-6,8.17s-4.84,5-6.73,7.83a12.63,12.63,0,0,0-1.62,6.09c-.28,4.67-.25,9.37-.22,14a3,3,0,0,1-1.62,3.1c-.83.41-1.6.93-2.4,1.4,0,0-.13,0-.15.07a12.12,12.12,0,0,1-1.68,3.1c-1.26,1.24-.7,2.11-.08,3.35C1336.73,1492.88,1337.37,1494.93,1338.16,1496.91Z"/>
        <path d="M1247.77,1360.47q1.74-9.62,3.49-19.23a49.8,49.8,0,0,1,6.62-16.47,19.23,19.23,0,0,1,2.6-2.89l-1.33-1.89c1.26-1.48,4.35-.09,4.63-3.22l-3.47-.2-.11-.28,1.81-.89-1.64-1.39a13.92,13.92,0,0,0,2-.57c1.91-.92,3.42-2,4.05-4.36,1.76-6.35,3.69-12.65,5.73-18.91a26,26,0,0,1,7.57-11.62c5.77-5.15,18-2.68,21.46,3a15.61,15.61,0,0,1,1.79,4.8c1,5,1.9,10,2.88,15.27a4.33,4.33,0,0,0,.58-.94c.71-2.93,1-6,2.21-8.76.75-1.74,2.61-3.22,4.32-4.26,4.37-2.67,9.1-2.71,13.92-1.18,1.75.56,3.61.82,5.32,1.47,3.36,1.29,5.39,3.69,5.55,7.44a3.66,3.66,0,0,0,.42,1.31c.54,1.13.52,2.09-.7,2.75l-.83-.86c-.35,2.54-.54,4.77-1,6.94a57.35,57.35,0,0,1-1.79,6.4,14.85,14.85,0,0,1-1.76,3.81,35.5,35.5,0,0,1-3.31,3.61l2.43.58c4.66,1.12,7.22,4.16,8,8.89a9.84,9.84,0,0,0,2.18,4.59c2.19,2.48,3,5.32,3.6,8.46a43.79,43.79,0,0,0,2.12,6.35,23,23,0,0,0-3,1.39c-.43.26-.56,1-.82,1.54,0,0,0,.1,0,.16.22,2.67,1.39,4.46,4.22,5a7.75,7.75,0,0,1,3,1.33c.5.38,1.06,1.56.84,1.9a20.66,20.66,0,0,1-3.7,4.72c-1.67,1.39-6.27.28-7.67-1.47a1.12,1.12,0,0,0-.26-.26c0,1.64.12,3.42,0,5.17a4.05,4.05,0,0,1-2.57,3.43c-.73.35-1.19,1.23-1.85,1.78a6.75,6.75,0,0,1-2.21,1.54c-3.06.87-4.72,3.42-6.82,5.43a2.08,2.08,0,0,0-.27,1.57c.3,2.37.63,4.71-.44,7a1.36,1.36,0,0,0,.05,1.12c1.23,1.72.8,3.55.39,5.34-.86,3.72-3,6.71-5.64,9.51.26.48.48.93.75,1.36,3.62,5.7,5.95,11.68,6.16,18.65.25,8.13,1.58,16.23,2,24.37.18,3.28-.66,6.63-1.17,9.93-1,6.69-2.39,13.33-3.18,20-.32,2.74.43,5.61.74,8.42.85,7.63,2.78,15.16,2.21,22.92-.45,6.06-1.07,12.1-1.5,18.16-.46,6.4-.77,12.81-1.13,19,1.3.94,2.44,1.79,3.61,2.61a4.39,4.39,0,0,1,1.85,4.7c-.73,4.42-2,8.54-5.71,11.51-4.12,3.31-8.53,5.07-13.82,3.16-1.9-.68-3.83-1.3-5.76-1.88a1.89,1.89,0,0,1-1.51-2.34c.51-3.3,1.08-6.61,1.61-9.91.32-2,.6-4,1-6,.22-1.31.2-2.81.87-3.85,1.14-1.78.7-3.32.21-5.08a85,85,0,0,1-2.2-9.44c-.29-1.83.18-3.76.17-5.65,0-3.35,0-6.71-.24-10-.44-5.94-.64-11.95-1.75-17.77-1-5.16-.54-10.2-.51-15.31,0-3-.91-5.92-1.44-8.87q-1.77-9.92-3.57-19.8a2.84,2.84,0,0,0-.54-1.31c0,.41-.08.82-.09,1.23-.27,9.43-.72,18.85-.71,28.27,0,4,1,7.9,1.54,11.85a29.74,29.74,0,0,1,.54,4,36.16,36.16,0,0,1-.36,5.6c-.74,5-1.63,9.92-2.39,14.9-.42,2.74-.68,5.51-1,8.26a52.92,52.92,0,0,0,.79,16.39,11.91,11.91,0,0,1-1.51,8.33,5.64,5.64,0,0,0-.51,4.13c.78,3.61,1.34,7.27,2,10.91.24,1.39-.33,2.19-1.73,2.71-4.87,1.81-9.79,3.35-15,2.3a38.2,38.2,0,0,1-6.76-2.06c-2.14-.86-2.82-2.74-2.06-5a26.42,26.42,0,0,1,4.61-8.68,4.26,4.26,0,0,0,.82-2.79c-.84-9.62-1.72-19.24-2.76-28.84A17.16,17.16,0,0,0,1271,1518a10.26,10.26,0,0,1-.6-7.45c2.14-6.91,1.33-13.86.87-20.83-.63-9.41-1-18.84-2-28.21-.57-5.73-1.85-11.4-3-17-1.26-6.23-2.78-12.41-4.08-18.64a15.32,15.32,0,0,1-.27-4.77c.44-3.73,1.15-7.43,1.63-11.15a2.05,2.05,0,0,0-.85-1.56c-1.09-.74-2.33-1.26-3.49-1.92-.85-.49-1-1-.62-2.12a6.41,6.41,0,0,0,0-3.42c-1.38-6.33-5.32-11.62-7.31-17.68-1-3-1.06-6.35-1.34-9.56a67.17,67.17,0,0,1-.22-8.15c.07-1.68-.37-2.78-2-3.31Zm60.49-45.55,4.17.48-1.48-3.94-2.33.57-1.16-3-.24.07Zm23.63,40.11.35.29c1.64-2.37,2.16.31,3.1.45l-3.55-8.37-.36.08Z"/>
      </g>
    </g>
    <g>
      <path d="M1103.64,2340c-13.86,0-24.05,1-31.4,2.34v111.09h20.38V2411a58.06,58.06,0,0,0,10,.66c14.53,0,27.4-3.83,35.58-12,6.35-6,9.69-14.87,9.69-25.56,0-10.52-4.34-19.38-11-24.89C1129.7,2343.19,1118.68,2340,1103.64,2340Zm-1,55.63a41.9,41.9,0,0,1-10-.83v-38.09a56.68,56.68,0,0,1,11.86-1c14.2,0,22.88,6.68,22.88,19.21C1127.36,2388.13,1118,2395.65,1102.64,2395.65Z"/>
      <polygon points="1307.31 2385.96 1259.71 2385.96 1259.71 2340.86 1239.17 2340.86 1239.17 2453.45 1259.71 2453.45 1259.71 2403.84 1307.31 2403.84 1307.31 2453.45 1327.86 2453.45 1327.86 2340.86 1307.31 2340.86 1307.31 2385.96"/>
      <path d="M1472.58,2339c-31.74,0-53.46,24.39-53.46,59,0,33.08,20,57.3,51.78,57.3,31.08,0,54-21.55,54-59.31C1524.86,2363.91,1505.48,2339,1472.58,2339Zm-.5,99.73c-19.72,0-31.24-18.21-31.24-41.1,0-23.22,10.85-42.09,31.24-42.09,20.54,0,31.06,20.05,31.06,41.26C1503.14,2420.38,1492,2438.75,1472.08,2438.75Z"/>
      <polygon points="1601.09 2358.06 1633.16 2358.06 1633.16 2453.45 1653.7 2453.45 1653.7 2358.06 1686.11 2358.06 1686.11 2340.86 1601.09 2340.86 1601.09 2358.06"/>
      <path d="M1815.78,2339c-31.74,0-53.45,24.39-53.45,59,0,33.08,20,57.3,51.78,57.3,31.08,0,54-21.55,54-59.31C1868.07,2363.91,1848.69,2339,1815.78,2339Zm-.49,99.73c-19.72,0-31.25-18.21-31.25-41.1,0-23.22,10.86-42.09,31.25-42.09,20.54,0,31.06,20.05,31.06,41.26C1846.35,2420.38,1835.16,2438.75,1815.29,2438.75Z"/>
      <path d="M2009.77,2407.51h19.88v28.07c-2.67,1.33-8.18,2.33-15.53,2.33-23.39,0-39.09-15.2-39.09-40.75,0-26.24,16.87-40.43,40.93-40.43,11.86,0,19.37,2.17,25.55,4.84L2046,2345c-5.17-2.5-16-5.34-29.9-5.34-37.25,0-62.64,22.89-62.64,58.46-.16,17,5.68,31.91,15.7,41.44,10.69,10.18,25.06,15,44.1,15a111.54,111.54,0,0,0,36.25-6.35v-57h-39.76Z"/>
      <path d="M2199.25,2400.33v-.5c10.52-3.85,20.38-13.7,20.38-28.23,0-9.53-3.51-17.37-9.69-22.56-7.52-6.35-18.54-9-34.75-9a194.5,194.5,0,0,0-31.06,2.34v111.09h20.37v-46.28h10.36c11.69.34,17,5,20.21,19.72,3.18,14,5.85,23.21,7.52,26.56h21.21c-2.33-4.35-5.34-17.37-8.85-31.41C2212.11,2411.18,2207.27,2403.34,2199.25,2400.33Zm-22.55-8.19h-12.2v-35.58c2-.5,6.18-1,12.7-1,13.36,0,22.05,5.68,22.05,18C2199.25,2384.79,2190.56,2392.14,2176.7,2392.14Z"/>
      <path d="M2341.62,2340.86l-36.08,112.59h21.21l9.69-31.91h35.75l10.19,31.91h22l-36.58-112.59Zm-1.84,65.15,8.69-27.73c2-6.68,3.66-14.54,5.34-21.05h.33c1.67,6.51,3.51,14.2,5.68,21.05l8.85,27.73Z"/>
      <path d="M2525.08,2340c-13.87,0-24.06,1-31.4,2.34v111.09h20.37V2411a58.11,58.11,0,0,0,10,.66c14.53,0,27.39-3.83,35.57-12,6.35-6,9.69-14.87,9.69-25.56,0-10.52-4.34-19.38-11-24.89C2551.13,2343.19,2540.11,2340,2525.08,2340Zm-1,55.63a42,42,0,0,1-10-.83v-38.09a56.72,56.72,0,0,1,11.87-1c14.19,0,22.87,6.68,22.87,19.21C2548.79,2388.13,2539.44,2395.65,2524.08,2395.65Z"/>
      <polygon points="2728.75 2385.96 2681.14 2385.96 2681.14 2340.86 2660.6 2340.86 2660.6 2453.45 2681.14 2453.45 2681.14 2403.84 2728.75 2403.84 2728.75 2453.45 2749.3 2453.45 2749.3 2340.86 2728.75 2340.86 2728.75 2385.96"/>
      <path d="M2904.54,2340.86l-13.53,28.9c-3.84,8.19-7,15.2-9.86,22.38h-.33c-3-7.68-5.85-14-9.69-22.38l-13.53-28.9h-23.39l35.59,65.65v46.94h20.54V2406l37.42-65.15Z"/>
    </g>
  </g>
</svg>
